<?xml version="1.0" encoding="utf-8"?>
<svg version="1.1" xmlns="http://www.w3.org/2000/svg" xmlns:xlink="http://www.w3.org/1999/xlink" x="0px" y="0px"
	 viewBox="45 -33.8 150 150" xml:space="preserve">
<g color="black">
	<rect x="45" y="-33.8" width="150" height="150" rx="32" ry="32" fill="white" />
	<path d="M84.2,12.6c26.3-2.6,50.2-5.3,71.8-7.9c2.1-0.2,3.6-0.9,4.6-1.9c1.3-1.3,2.3-2,3-2c1.8,0,4.2,1.5,7.4,4.5
		c2.9,2.9,4.3,5.2,4.3,6.8c0,1.2-0.9,2.4-2.7,3.7c-1.5,0.9-2.5,2.5-2.9,4.9c-4.7,33.2-11.6,56.6-20.8,70.2c-3.2,4.9-6.6,7.3-10,7.3
		c-2.6,0-3.9-1.2-3.9-3.7c0-1-0.7-2.7-2.1-5c-1.8-2.9-6.1-7.2-12.7-13l2.6-3.9c3.9,2.8,8.5,6,14,9.6c2.1,1.4,3.8,2.1,5.1,2.1
		c1,0,1.9-0.9,2.7-2.6c9.6-16.9,15.4-40.6,17.5-70.9c-21.1,1.4-42,3.4-62.8,6c-8,1-13.3,1.9-16,2.6c-3.5,0.9-6.2,1.9-8,2.9
		c-0.5,0.3-1,0.5-1.5,0.8s-0.7,0.3-0.9,0.3c-0.6,0-1.5-1.5-2.9-4.5c-1.5-3.2-2.2-5.2-2.2-5.9c0-0.2,0.2-0.4,0.7-0.7
		c0.5-0.2,1.2-0.5,2.1-0.7c2.1-0.5,4.4-1.6,6.8-3.3C79.8,6.7,82,3.8,84-0.3c2-4.8,3-8.6,3-11.3c0-2.7-2.4-5-7.2-7l1.3-3.7
		c11.7,1.6,17.6,5.1,17.6,10.5c0,1.3-0.5,3.2-1.4,5.6C95.5-0.6,91.1,5.7,84.2,12.6z"/>
</g>
</svg>
